Coordinates
version=1
nRows=24
nColumns=24
inDegrees=yes

Units are S.I. units (second, meters, Newtons, ...)
Angles are in degrees.

endheader
time	pelvis_tilt	pelvis_list	pelvis_rotation	pelvis_tx	pelvis_ty	pelvis_tz	hip_flexion_r	hip_adduction_r	hip_rotation_r	knee_angle_r	ankle_angle_r	subtalar_angle_r	mtp_angle_r	hip_flexion_l	hip_adduction_l	hip_rotation_l	knee_angle_l	ankle_angle_l	subtalar_angle_l	mtp_angle_l	lumbar_extension	lumbar_bending	lumbar_rotation
      6.00000000	      6.87017197	     -0.44388711	      6.24350620	      2.75712100	      0.89209887	     -0.10816262	    -31.78963515	      7.22352432	     -4.01690820	      1.56046262	     19.98255235	      0.58473722	      0.00000000	     13.14893575	      4.89917154	      8.56453913	      2.02617585	      6.44894522	    -15.58060457	      0.00000000	    -27.38424386	      3.53964517	      1.04471629
      6.01000000	      7.13887995	     -0.38212006	      6.31832004	      2.77416421	      0.89110592	     -0.10941263	    -32.10282683	      7.09089646	     -4.88897957	     -0.36730519	     19.54855809	      1.77198222	      0.00000000	     12.77947338	      5.33885055	      8.64164852	      1.67730003	      6.76262339	    -15.36664646	      0.00000000	    -27.63764306	      3.61949405	      0.57540585
      6.02000000	      7.28929976	     -0.30164197	      6.53700179	      2.79142737	      0.89023618	     -0.11097201	    -31.98065380	      6.91428451	     -6.36715192	     -2.80866634	     19.07245523	      3.49617027	      0.00000000	     12.64110775	      5.88370121	      8.66421376	      0.65323568	      7.21515813	    -14.86380743	      0.00000000	    -27.71583426	      3.72966911	     -0.09774399
      6.03000000	      7.42174910	     -0.16562897	      6.81456768	      2.80887117	      0.88962374	     -0.11272364	    -31.57452099	      6.59509022	     -8.05436398	     -5.68970474	     18.24884493	      5.29191331	      0.00000000	     12.56776854	      6.50343508	      8.56214668	     -0.83163946	      7.50773916	    -14.20428693	      0.00000000	    -27.75369081	      3.80095016	     -0.84267975
      6.04000000	      7.50005691	      0.01636200	      7.13737149	      2.82639943	      0.88923534	     -0.11463118	    -30.84477802	      6.11891179	     -9.71489950	     -8.98959824	     16.91746792	      6.85733738	      0.00000000	     12.57560919	      7.15495064	      8.46277032	     -2.60811577	      7.53033441	    -13.53135968	      0.00000000	    -27.71943042	      3.83797104	     -1.64304490
      6.05000000	      7.59531312	      0.29305408	      7.48058058	      2.84386033	      0.88921149	     -0.11659765	    -29.86085310	      5.44440554	    -11.17201569	    -12.69807287	     15.00034937	      8.03206277	      0.00000000	     12.56299645	      7.84764678	      8.33356725	     -4.51880596	      7.29999457	    -12.84966466	      0.00000000	    -27.74632778	      3.76681111	     -2.46115714
      6.06000000	      7.57666878	      0.56359300	      7.82014961	      2.86108986	      0.88943025	     -0.11857877	    -28.44861031	      4.67646701	    -12.12958718	    -16.78519302	     12.37924030	      8.54221818	      0.00000000	     12.67139641	      8.49049140	      8.43844817	     -6.46645196	      6.82741616	    -12.48493725	      0.00000000	    -27.68901987	      3.69440910	     -3.19928986
      6.07000000	      7.57504867	      0.93846048	      8.12041413	      2.87797407	      0.89007022	     -0.12047155	    -26.72846459	      3.70438741	    -12.81919621	    -21.25970277	      9.40989584	      8.86087636	      0.00000000	     12.76390217	      9.17169521	      8.47978603	     -8.43750499	      6.44550248	    -12.08095699	      0.00000000	    -27.74461947	      3.49073011	     -3.87619227
      6.08000000	      7.52129266	      1.35777477	      8.35174772	      2.89443999	      0.89097654	     -0.12218934	    -24.62285539	      2.60914524	    -13.09892841	    -26.05398926	      6.32845795	      8.98737015	      0.00000000	     12.92873258	      9.84249353	      8.43776313	    -10.44406569	      6.39446080	    -11.62530875	      0.00000000	    -27.83017262	      3.20264516	     -4.42264071
      6.09000000	      7.45540455	      1.82944666	      8.47332023	      2.91048414	      0.89209155	     -0.12360745	    -22.21524508	      1.41427503	    -12.98839528	    -31.06264911	      3.56715470	      9.13784953	      0.00000000	     13.14237326	     10.47116232	      7.92918000	    -12.52229240	      7.03883189	    -10.56322984	      0.00000000	    -27.98715343	      2.80462372	     -4.84183818
      6.10000000	      7.29303162	      2.33817109	      8.45508551	      2.92623227	      0.89317718	     -0.12483534	    -19.47045245	      0.12559999	    -12.55012231	    -36.18126704	      1.59794737	      9.54695718	      0.00000000	     13.27091881	     11.13052399	      7.79413833	    -14.32088996	      7.64063994	    -10.31764790	      0.00000000	    -28.06596332	      2.31326446	     -5.08324782
      6.11000000	      7.11341384	      2.88872535	      8.29759897	      2.94172709	      0.89426775	     -0.12574762	    -16.56799304	     -1.17664927	    -11.79205846	    -41.20112603	      0.59475018	     10.09810705	      0.00000000	     13.31035640	     11.72881181	      7.19891200	    -15.95182054	      8.85281627	     -9.45158028	      0.00000000	    -28.14535429	      1.71827115	     -5.25110505
      6.12000000	      6.92518122	      3.46630060	      7.93423798	      2.95709740	      0.89537775	     -0.12647619	    -13.57257790	     -2.49082525	    -10.73262125	    -45.98996846	      0.76331231	     10.96587336	      0.00000000	     13.03144982	     12.32978216	      6.86007571	    -17.03312968	      9.85202008	     -9.32918783	      0.00000000	    -28.19711454	      1.04623725	     -5.20734316
      6.13000000	      6.74116734	      4.05061411	      7.42960988	      2.97239801	      0.89657171	     -0.12701288	    -10.56625166	     -3.71226741	     -9.42814218	    -50.37030762	      1.83744800	     11.78324157	      0.00000000	     12.46441648	     12.86823881	      6.38392222	    -17.60894467	     10.91215959	     -9.13229624	      0.00000000	    -28.21588477	      0.32775927	     -5.13622756
      6.14000000	      6.58717379	      4.59331697	      6.80664866	      2.98764541	      0.89792442	     -0.12744952	     -7.60379643	     -4.79252778	     -7.98680738	    -54.24067475	      3.54744815	     12.44020104	      0.00000000	     11.59811812	     13.31065757	      5.80613821	    -17.68558929	     11.94458055	     -8.93047832	      0.00000000	    -28.21951938	     -0.35834718	     -4.99906170
      6.15000000	      6.54084388	      5.04828317	      6.11923510	      3.00287472	      0.89959489	     -0.12791341	     -4.81012402	     -5.66954933	     -6.50234996	    -57.51385627	      5.69527383	     13.01815949	      0.00000000	     10.32567425	     13.65026737	      5.37572367	    -17.22544194	     12.77755683	     -8.94918262	      0.00000000	    -28.28622151	     -0.92036185	     -4.81218453
      6.16000000	      6.48720490	      5.37182184	      5.44810472	      3.01808186	      0.90143672	     -0.12843238	     -2.07533436	     -6.30219521	     -5.07490477	    -60.17663080	      7.92654304	     13.25519560	      0.00000000	      8.86778010	     13.85407814	      4.97868862	    -16.39302826	     13.49048540	     -8.89719296	      0.00000000	    -28.27733314	     -1.31943851	     -4.64026271
      6.17000000	      6.45558199	      5.53530150	      4.86769909	      3.03325918	      0.90346514	     -0.12909395	      0.52749047	     -6.67436473	     -3.81683467	    -62.21000369	     10.07167171	     13.19385850	      0.00000000	      7.24740111	     13.91220028	      4.71254466	    -15.30272031	     14.07324152	     -8.84746820	      0.00000000	    -28.23911157	     -1.49099136	     -4.51706996
      6.18000000	      6.40860914	      5.54060708	      4.44662181	      3.04841192	      0.90557928	     -0.12995681	      3.00384675	     -6.81551562	     -2.81574451	    -63.63164077	     12.03972753	     12.85550040	      0.00000000	      5.55321554	     13.84182723	      4.67062205	    -14.06452341	     14.52128856	     -8.84404118	      0.00000000	    -28.13412298	     -1.42550524	     -4.48411818
      6.19000000	      6.30607019	      5.41333227	      4.23316494	      3.06354943	      0.90764249	     -0.13106845	      5.36935224	     -6.78884640	     -2.12590044	    -64.47862795	     13.78272961	     12.29076940	      0.00000000	      3.84270856	     13.68630532	      5.07893719	    -12.72768312	     14.74993539	     -9.19447018	      0.00000000	    -27.92627478	     -1.14576662	     -4.59276113
      6.20000000	      6.20107108	      5.19265983	      4.23415489	      3.07867913	      0.90964568	     -0.13239262	      7.53838205	     -6.65593819	     -1.75403375	    -64.77298622	     15.38255206	     11.55319442	      0.00000000	      2.07314025	     13.45863832	      5.94512223	    -11.31980956	     14.65697437	     -9.99063318	      0.00000000	    -27.69267510	     -0.69603056	     -4.89584581
      6.21000000	      6.09096667	      4.88173218	      4.43459212	      3.09383328	      0.91150196	     -0.13389159	      9.50758285	     -6.44329357	     -1.68354831	    -64.54434790	     16.76105919	     10.64158399	      0.00000000	      0.23636858	     13.14575324	      7.43509369	     -9.83092249	     14.25967759	    -11.37478986	      0.00000000	    -27.42700017	     -0.10000249	     -5.32189231
      6.22000000	      5.99101260	      4.53353440	      4.76032170	      3.10903797	      0.91312492	     -0.13545990	     11.27742039	     -6.21332771	     -1.81778226	    -63.85579589	     18.02601268	      9.72095371	      0.00000000	     -1.68189563	     12.76639680	      9.46487475	     -8.24449070	     13.51421891	    -13.40914946	      0.00000000	    -27.15441510	      0.55355554	     -5.80538289
      6.23000000	      5.86144125	      4.15344491	      5.18728551	      3.12426445	      0.91438431	     -0.13702354	     12.90781117	     -5.97357603	     -2.11765058	    -62.74944656	     19.16208673	      8.76390546	      0.00000000	     -3.59892369	     12.29706545	     11.92518054	     -6.60443221	     12.39117124	    -16.09294984	      0.00000000	    -26.83806385	      1.23381382	     -6.39262498
